<svg viewBox="0 0 324.23 65" xmlns="http://www.w3.org/2000/svg" xmlns:xlink="http://www.w3.org/1999/xlink"><linearGradient id="a" gradientUnits="userSpaceOnUse" x1="203.49" x2="280.97" y1="32.78" y2="32.78"><stop offset=".42" stop-color="#0b1239"/><stop offset=".46" stop-color="#203f45"/><stop offset=".51" stop-color="#3c7c57"/><stop offset=".54" stop-color="#48955e"/></linearGradient><path d="m33.58 60.8-.09-1.58-.64-10.29c-.11 0-.23 0-.34 0-1.14 0-2.24-.11-3.31-.33-7.5-1.53-13.14-8.16-13.14-16.11 0-1.57.22-3.08.63-4.52.04-.13.08-.26.11-.39.04-.13.08-.25.13-.38.51-1.52 1.25-2.94 2.16-4.23.12-.18.25-.35.38-.52.05-.08.11-.15.17-.23 3.01-3.77 7.65-6.19 12.85-6.19.12 0 .23 0 .35.01l.64-10.32.09-1.54.26-4.17c-.22-.02-.45-.02-.67-.03-.22 0-.44 0-.67 0-1.73 0-3.43.14-5.08.4-.49.08-.98.16-1.47.26-.48.1-.95.21-1.42.33-.65.16-1.3.35-1.95.56-.17.05-.34.11-.51.17-2.87.97-5.56 2.33-8.01 4.02-.34.23-.68.48-1.01.73-1.25.93-2.43 1.96-3.53 3.06-.22.22-.44.45-.65.68-.12.13-.24.25-.35.38-.26.28-.51.56-.75.85-.17.19-.33.38-.48.58-.15.18-.29.35-.42.53-.14.16-.26.32-.38.49 0 .01-.02.02-.02.03-.08.1-.15.21-.23.31s-.15.21-.23.31c-.1.15-.21.3-.32.46-.19.28-.37.56-.56.84-.03.03-.05.07-.07.1-.06.1-.13.21-.19.31-.08.14-.17.28-.25.42-.05.08-.09.15-.14.23-.01.03-.03.05-.05.08-.05.07-.09.14-.13.21-.03.05-.06.11-.09.17-.1.17-.19.34-.28.51-.08.13-.15.27-.22.4-.05.09-.09.18-.14.26 0 0 0 .02-.01.03-.04.08-.08.16-.12.23-.06.13-.13.26-.19.39-.03.05-.05.1-.07.15-.1.21-.2.43-.3.65-.09.21-.19.42-.28.63-.02.03-.03.06-.04.1-.01.02-.02.05-.03.07-.08.18-.15.36-.22.54-.02.06-.05.13-.08.2-.05.11-.09.23-.13.34l-.02.05s-.13.36-.13.36l-.1.27v.02c-.07.18-.13.37-.19.55-.07.2-.13.4-.19.6-.06.19-.11.37-.17.56-.04.12-.07.25-.11.37-.02.07-.04.14-.06.21 0 .03 0 .05-.02.07s-.01.05-.02.07c-.06.22-.12.44-.17.66-.06.23-.11.47-.16.7v.03.03c0 .04-.01.07-.02.1-.04.17-.07.35-.1.52-.07.37-.14.75-.2 1.13-.04.25-.08.5-.11.75 0 .04-.01.07-.02.11 0 .07-.01.14-.02.2-.05.41-.1.83-.14 1.25v.12c-.04.46-.07.93-.09 1.39h-.01c0 .22-.02.43-.03.65v.64.09.42.42c0 .19.01.39.02.59 0 .19.02.39.03.58s.03.38.04.58c.02.19.03.38.05.58.04.38.08.76.13 1.14.03.19.05.38.08.57s.06.37.09.56c.06.37.13.75.21 1.12s.16.74.25 1.11.18.73.28 1.09c.05.17.09.34.14.51 0 .03.01.05.02.07.05.17.1.33.15.5.04.14.08.27.13.41l.15.45c.07.19.14.39.21.59.06.15.11.3.17.44l.12.3.12.3c0 .01 0 .03.01.04.1.25.21.51.32.75.09.2.18.4.27.6.08.17.16.34.25.51.07.15.14.3.22.44.07.14.14.27.2.4.05.1.11.2.16.31.3.57.63 1.12.96 1.67.07.12.14.23.22.35.07.1.14.21.2.32.1.16.21.31.31.46s.21.31.32.46l.36.51c.09.13.19.26.28.38.08.11.15.21.23.32.06.08.12.16.19.23l.05.07c.38.49.79.97 1.2 1.43.09.11.19.22.3.33.56.62 1.15 1.21 1.76 1.78.11.11.23.22.34.32.02.02.04.04.06.05.08.07.16.14.24.22.17.15.34.31.52.45.12.1.23.2.35.3.08.07.16.14.24.19.12.11.25.21.37.31l.06.05c.07.06.14.11.21.16.35.28.71.55 1.08.8l1.23.84c.04.03.09.05.13.08.06.03.11.07.17.1.35.22.71.44 1.07.65.23.13.46.26.69.38l.33.18c.02.01.05.03.08.04.14.07.27.14.41.21.17.09.34.17.51.25.05.03.1.05.15.08.16.08.32.15.48.23.38.18.76.34 1.15.5s.06.03.06.03c.11.05.22.09.33.13.27.11.55.21.82.31.18.07.36.13.54.19.04.01.07.03.11.04.2.07.41.14.61.2.02.01.05.02.06.02s.06.02.09.03l.09.03c.25.08.51.15.76.23.01 0 .02 0 .04.01.25.07.5.14.75.2.2.05.41.1.62.15.15.04.3.07.46.1.03 0 .05.01.08.02.04 0 .08.02.12.03.11.02.22.05.33.07.26.05.51.1.78.15.42.07.84.14 1.26.19.06.01.11.02.17.02.24.04.49.06.74.09.18.02.36.04.55.06.13.01.27.02.4.03.2.02.39.03.59.05.23.01.47.02.7.03.1 0 .19.01.29.01.15 0 .3 0 .45.01h.6s.4 0 .6 0c.15 0 .3 0 .45-.01.1 0 .2 0 .3-.01s-.26-4.17-.26-4.17z" fill="#0b1239"/><g fill="#48955e"><path d="m41.38 46.34 6.64 10.3-.32.2c-.5.32-1.03.63-1.68.98l-.34.18-5.6-10.9 1.31-.76z"/><path d="m37.48 16.82c-.48-.15-.97-.28-1.47-.39l3.39-15.7c1.01.22 2 .49 2.97.8l-.02.05-4.88 15.23z"/><path d="m37.49 48.17 4.9 15.29c-.97.31-1.96.58-2.97.79l-3.39-15.7c.5-.1.98-.24 1.46-.39z"/><path d="m46.34 23.62 10.3-6.64.2.33c.35.56.68 1.12.98 1.68l.18.34-10.9 5.6-.75-1.3z"/><path d="m40.05 17.89 5.61-10.9.33.18c.58.31 1.15.64 1.68.97l.33.21-6.64 10.3c-.42-.27-.86-.52-1.31-.75z"/><path d="m48.18 27.49 15.28-4.9c.31.97.58 1.96.8 2.97h-.07s-15.62 3.39-15.62 3.39z"/><path d="m43.57 20.34 10.77-11.9c.76.69 1.49 1.42 2.18 2.18l-11.89 10.79c-.34-.37-.7-.73-1.07-1.07z"/><path d="m44.66 43.57 11.89 10.78c-.69.76-1.42 1.49-2.18 2.18l-10.79-11.89c.37-.35.74-.7 1.07-1.08z"/><path d="m47.12 40.05 10.9 5.59-.18.34c-.31.58-.64 1.15-.97 1.68l-.21.32-10.29-6.64c.27-.42.52-.86.75-1.3z"/><path d="m48.93 33.23c.02-.24.02-.48.02-.73s0-.52-.02-.78l12.23-.6v.38c.03.33.04.66.04.99s0 .63-.02.95l-.02.38-12.23-.6z"/><path d="m64.27 39.39c-.22 1.02-.48 2.01-.8 2.98l-15.28-4.9c.15-.48.28-.97.39-1.46z"/><path d="m41.38 46.34c-.42.28-.86.52-1.31.76z"/><path d="m47.1 24.92-.75-1.3c.28.42.52.86.75 1.3z"/><path d="m48.57 28.96-.39-1.46c.15.48.28.97.39 1.46z"/></g><g fill="#0b1239"><path d="m112.81 40.48c-2.32 2.67-5.91 3.72-11.42 3.72-4.68 0-9.62-1.31-11.94-4.55-1.23-1.53-1.97-3.81-1.97-7.13 0-3.02.52-5.29 1.71-6.82 1.97-3.06 6.17-4.77 12.07-4.77s9.49 1.62 11.37 3.81c.96 1.09 1.57 2.36 1.75 3.85h7c-.13-1.66-.66-3.89-1.79-5.82-2.84-4.77-8.14-8.01-18.24-8.01-9.23 0-14.74 2.89-17.85 7.13-1.97 2.54-2.98 6.12-2.98 10.59 0 4.9 1.23 8.58 3.37 11.2 3.02 4.03 8.84 6.56 17.67 6.56 9.49 0 15.01-2.84 17.76-7.26 1.4-2.23 1.97-4.68 2.14-6.34h-7c-.18 1.4-.7 2.8-1.66 3.85z"/><path d="m132.05 35.41h25.25v-5.95h-25.25v-8.09h25.99v-6h-32.59v34.35h32.9v-6.04h-26.3z"/><path d="m197.98 30.99c.83-1.36 1.27-3.37 1.27-5.73 0-2.63-.52-4.46-1.62-5.95-1.66-2.41-4.9-3.94-10.02-3.94h-23.36v34.34h6.65v-13.91h14.66l9.41 13.91h7.61l-10.32-15.01c2.58-.35 4.59-1.88 5.73-3.72zm-10.46-.96h-16.58v-8.79h15.88c2.84 0 4.38.66 5.21 1.93.44.61.61 1.66.61 2.62 0 .83-.18 1.84-.61 2.63-.61 1.09-2.06 1.62-4.51 1.62z"/></g><path d="m274.27 36.77c0 4.86-4.46 7.61-11.29 7.61-7.83 0-11.68-3.02-11.68-7.66v-21.35h-47.81v5.95h15.31v28.39h6.87v-28.39h18.9v15.27c0 9.32 7.22 13.61 18.16 13.61s18.24-4.46 18.24-12.95v-21.88h-6.69v21.39z" fill="url(#a)"/><path d="m311.24 29.81c-1.44-.18-5.08-.66-6.91-.88-8.27-.92-10.76-1.88-10.76-4.42s2.36-3.89 10.76-3.89c7.09 0 9.84 1.14 11.11 3.19.35.57.61 1.31.7 1.92h7.26c-.18-1.18-.48-2.54-1.14-3.76-2.45-4.64-6.87-7.13-17.54-7.13-12.69 0-18.11 4.37-18.11 9.89s4.24 8.66 14.31 9.76c1.66.22 4.99.57 6.56.79 7.66.92 9.71 1.97 9.71 4.81 0 2.67-2.49 4.37-10.98 4.37-6.74 0-10.11-.87-11.73-2.71-.7-.79-1.05-1.93-1.18-2.93h-7.18c.18 2.19 1.18 4.42 2.49 6.08 2.76 3.37 8.01 5.34 17.98 5.34 11.99 0 17.63-4.02 17.63-10.63 0-5.69-3.85-8.66-12.99-9.8z" fill="#48955e"/></svg>